  0
SECTION
  2
HEADER
  9
$ACADVER
  1
AC1009
  9
$INSBASE
 10
0.0
 20
0.0
 30
0.0
  9
$EXTMIN
 10
0.0
 20
0.0
 30
0.0
  9
$EXTMAX
 10
100.0
 20
100.0
 30
0.0
  9
$UNITMODE
 70
0
  9
$AUNITS
 70
0
  9
$ANGBASE
 50
0.0
  9
$ANGDIR
 70
0
  0
ENDSEC
  0
SECTION
  2
TABLES
  0
TABLE
  2
LTYPE
 70
19
  0
LTYPE
  2
CONTINUOUS
 70
0
  3
Solid
 72
65
 73
0
 40
0.0
  0
LTYPE
  2
CENTER
 70
0
  3
Center ____ _ ____ _ ____ _ ____ _ ____ _ ____
 72
65
 73
4
 40
2.0
 49
1.25
 49
-0.25
 49
0.25
 49
-0.25
  0
LTYPE
  2
CENTERX2
 70
0
  3
Center (2x) ________  __  ________  __  ________
 72
65
 73
4
 40
3.5
 49
2.5
 49
-0.25
 49
0.5
 49
-0.25
  0
LTYPE
  2
CENTER2
 70
0
  3
Center (.5x) ____ _ ____ _ ____ _ ____ _ ____
 72
65
 73
4
 40
1.0
 49
0.625
 49
-0.125
 49
0.125
 49
-0.125
  0
LTYPE
  2
DASHED
 70
0
  3
Dashed __ __ __ __ __ __ __ __ __ __ __ __ __ _
 72
65
 73
2
 40
0.6
 49
0.5
 49
-0.1
  0
LTYPE
  2
DASHEDX2
 70
0
  3
Dashed (2x) ____  ____  ____  ____  ____  ____
 72
65
 73
2
 40
1.2
 49
1.0
 49
-0.2
  0
LTYPE
  2
DASHED2
 70
0
  3
Dashed (.5x) _ _ _ _ _ _ _ _ _ _ _ _ _ _
 72
65
 73
2
 40
0.3
 49
0.25
 49
-0.05
  0
LTYPE
  2
PHANTOM
 70
0
  3
Phantom ______  __  __  ______  __  __  ______
 72
65
 73
6
 40
2.5
 49
1.25
 49
-0.25
 49
0.25
 49
-0.25
 49
0.25
 49
-0.25
  0
LTYPE
  2
PHANTOMX2
 70
0
  3
Phantom (2x)____________    ____    ____    ____________
 72
65
 73
6
 40
4.25
 49
2.5
 49
-0.25
 49
0.5
 49
-0.25
 49
0.5
 49
-0.25
  0
LTYPE
  2
PHANTOM2
 70
0
  3
Phantom (.5x) ___ _ _ ___ _ _ ___ _ _ ___ _ _ ___
 72
65
 73
6
 40
1.25
 49
0.625
 49
-0.125
 49
0.125
 49
-0.125
 49
0.125
 49
-0.125
  0
LTYPE
  2
DASHDOT
 70
0
  3
Dash dot __ . __ . __ . __ . __ . __ . __ . __
 72
65
 73
4
 40
1.4
 49
1.0
 49
-0.2
 49
0.0
 49
-0.2
  0
LTYPE
  2
DASHDOTX2
 70
0
  3
Dash dot (2x) ____  .  ____  .  ____  .  ____
 72
65
 73
4
 40
2.4
 49
2.0
 49
-0.2
 49
0.0
 49
-0.2
  0
LTYPE
  2
DASHDOT2
 70
0
  3
Dash dot (.5x) _ . _ . _ . _ . _ . _ . _ . _
 72
65
 73
4
 40
0.7
 49
0.5
 49
-0.1
 49
0.0
 49
-0.1
  0
LTYPE
  2
DOT
 70
0
  3
Dot .  .  .  .  .  .  .  .  .  .  .  .  .  .  .  .
 72
65
 73
2
 40
0.2
 49
0.0
 49
-0.2
  0
LTYPE
  2
DOTX2
 70
0
  3
Dot (2x) .    .    .    .    .    .    .    . 
 72
65
 73
2
 40
0.4
 49
0.0
 49
-0.4
  0
LTYPE
  2
DOT2
 70
0
  3
Dot (.5) . . . . . . . . . . . . . . . . . . . 
 72
65
 73
2
 40
0.1
 49
0.0
 49
-0.1
  0
LTYPE
  2
DIVIDE
 70
0
  3
Divide __ . . __ . . __ . . __ . . __ . . __
 72
65
 73
6
 40
1.6
 49
1.0
 49
-0.2
 49
0.0
 49
-0.2
 49
0.0
 49
-0.2
  0
LTYPE
  2
DIVIDEX2
 70
0
  3
Divide (2x) ____  . .  ____  . .  ____  . .  ____
 72
65
 73
6
 40
2.6
 49
2.0
 49
-0.2
 49
0.0
 49
-0.2
 49
0.0
 49
-0.2
  0
LTYPE
  2
DIVIDE2
 70
0
  3
Divide(.5x) _ . _ . _ . _ . _ . _ . _ . _
 72
65
 73
6
 40
0.8
 49
0.5
 49
-0.1
 49
0.0
 49
-0.1
 49
0.0
 49
-0.1
  0
ENDTAB
  0
TABLE
  2
LAYER
 70
5
  0
LAYER
  2
DIMENSIONS
 70
0
 62
1
  6
CONTINUOUS
  0
LAYER
  2
TABLEBACKGROUND
 70
0
 62
1
  6
CONTINUOUS
  0
LAYER
  2
TABLECONTENT
 70
0
 62
1
  6
CONTINUOUS
  0
LAYER
  2
TABLEGRID
 70
0
 62
1
  6
CONTINUOUS
  0
LAYER
  2
VIEWPORTS
 70
0
 62
7
  6
CONTINUOUS
  0
ENDTAB
  0
TABLE
  2
STYLE
 70
12
  0
STYLE
  2
STANDARD
 70
0
 40
0.0
 41
1.0
 42
1.0
 50
0.0
 71
0
  3
arial.ttf
  4

  0
STYLE
  2
ARIAL
 70
0
 40
0.0
 41
1.0
 42
1.0
 50
0.0
 71
0
  3
arial.ttf
  4

  0
STYLE
  2
ARIAL_BOLD
 70
0
 40
0.0
 41
1.0
 42
1.0
 50
0.0
 71
0
  3
arialbd.ttf
  4

  0
STYLE
  2
ARIAL_ITALIC
 70
0
 40
0.0
 41
1.0
 42
1.0
 50
0.0
 71
0
  3
ariali.ttf
  4

  0
STYLE
  2
ARIAL_BOLD_ITALIC
 70
0
 40
0.0
 41
1.0
 42
1.0
 50
0.0
 71
0
  3
arialbi.ttf
  4

  0
STYLE
  2
ARIAL_BLACK
 70
0
 40
0.0
 41
1.0
 42
1.0
 50
0.0
 71
0
  3
ariblk.ttf
  4

  0
STYLE
  2
ISOCPEUR
 70
0
 40
0.0
 41
1.0
 42
1.0
 50
0.0
 71
0
  3
isocpeur.ttf
  4

  0
STYLE
  2
ISOCPEUR_ITALIC
 70
0
 40
0.0
 41
1.0
 42
1.0
 50
0.0
 71
0
  3
isocpeui.ttf
  4

  0
STYLE
  2
TIMES
 70
0
 40
0.0
 41
1.0
 42
1.0
 50
0.0
 71
0
  3
times.ttf
  4

  0
STYLE
  2
TIMES_BOLD
 70
0
 40
0.0
 41
1.0
 42
1.0
 50
0.0
 71
0
  3
timesbd.ttf
  4

  0
STYLE
  2
TIMES_ITALIC
 70
0
 40
0.0
 41
1.0
 42
1.0
 50
0.0
 71
0
  3
timesi.ttf
  4

  0
STYLE
  2
TIMES_BOLD_ITALIC
 70
0
 40
0.0
 41
1.0
 42
1.0
 50
0.0
 71
0
  3
timesbi.ttf
  4

  0
ENDTAB
  0
TABLE
  2
VIEW
 70
0
  0
ENDTAB
  0
TABLE
  2
APPID
 70
1
  0
APPID
  2
DXFWRITE
 70
0
  0
ENDTAB
  0
TABLE
  2
VPORT
 70
0
  0
ENDTAB
  0
TABLE
  2
UCS
 70
0
  0
ENDTAB
  0
ENDSEC
  0
SECTION
  2
BLOCKS
  0
ENDSEC
  0
SECTION
  2
ENTITIES
  0
VIEWPORT
  8
VIEWPORTS
 67
1
 10
0.0
 20
0.0
 30
0.0
 40
1.0
 41
1.0
 68
1
 69
1
1001
ACAD
1000
MVIEW
1002
{
1070
16
1010
0.0
1020
0.0
1030
0.0
1010
0.0
1020
0.0
1030
0.0
1040
0.0
1040
1.0
1040
0.0
1040
0.0
1040
50.0
1040
0.0
1040
0.0
1070
0
1070
100
1070
1
1070
3
1070
0
1070
0
1070
0
1070
0
1040
0.0
1040
0.0
1040
0.0
1040
0.1
1040
0.1
1040
0.1
1040
0.1
1070
0
1002
{
1002
}
1002
}
  0
POLYLINE
  8
0
 66
1
 10
0.0
 20
0.0
 30
0.0
 70
9
  0
VERTEX
  8
0
 10
9.0
 20
0.0
 30
0.0
  0
VERTEX
  8
0
 10
4.500000000000001
 20
7.794228634059947
 30
0.0
  0
VERTEX
  8
0
 10
-4.499999999999998
 20
7.794228634059948
 30
0.0
  0
VERTEX
  8
0
 10
-9.0
 20
1.102182119232618e-15
 30
0.0
  0
VERTEX
  8
0
 10
-4.5000000000000036
 20
-7.794228634059946
 30
0.0
  0
VERTEX
  8
0
 10
4.500000000000001
 20
-7.794228634059947
 30
0.0
  0
SEQEND
  0
POLYLINE
  8
0
 66
1
 10
0.0
 20
0.0
 30
0.0
 70
9
  0
VERTEX
  8
0
 10
9.0
 20
17.32050807568877
 30
0.0
  0
VERTEX
  8
0
 10
4.500000000000001
 20
25.11473670974872
 30
0.0
  0
VERTEX
  8
0
 10
-4.499999999999998
 20
25.11473670974872
 30
0.0
  0
VERTEX
  8
0
 10
-9.0
 20
17.32050807568877
 30
0.0
  0
VERTEX
  8
0
 10
-4.5000000000000036
 20
9.526279441628825
 30
0.0
  0
VERTEX
  8
0
 10
4.500000000000001
 20
9.526279441628823
 30
0.0
  0
SEQEND
  0
POLYLINE
  8
0
 66
1
 10
0.0
 20
0.0
 30
0.0
 70
9
  0
VERTEX
  8
0
 10
9.0
 20
34.64101615137754
 30
0.0
  0
VERTEX
  8
0
 10
4.500000000000001
 20
42.43524478543749
 30
0.0
  0
VERTEX
  8
0
 10
-4.499999999999998
 20
42.43524478543749
 30
0.0
  0
VERTEX
  8
0
 10
-9.0
 20
34.64101615137754
 30
0.0
  0
VERTEX
  8
0
 10
-4.5000000000000036
 20
26.846787517317594
 30
0.0
  0
VERTEX
  8
0
 10
4.500000000000001
 20
26.846787517317594
 30
0.0
  0
SEQEND
  0
POLYLINE
  8
0
 66
1
 10
0.0
 20
0.0
 30
0.0
 70
9
  0
VERTEX
  8
0
 10
9.0
 20
51.96152422706632
 30
0.0
  0
VERTEX
  8
0
 10
4.500000000000001
 20
59.75575286112627
 30
0.0
  0
VERTEX
  8
0
 10
-4.499999999999998
 20
59.75575286112627
 30
0.0
  0
VERTEX
  8
0
 10
-9.0
 20
51.96152422706632
 30
0.0
  0
VERTEX
  8
0
 10
-4.5000000000000036
 20
44.16729559300637
 30
0.0
  0
VERTEX
  8
0
 10
4.500000000000001
 20
44.16729559300637
 30
0.0
  0
SEQEND
  0
POLYLINE
  8
0
 66
1
 10
0.0
 20
0.0
 30
0.0
 70
9
  0
VERTEX
  8
0
 10
9.0
 20
69.28203230275508
 30
0.0
  0
VERTEX
  8
0
 10
4.500000000000001
 20
77.07626093681503
 30
0.0
  0
VERTEX
  8
0
 10
-4.499999999999998
 20
77.07626093681503
 30
0.0
  0
VERTEX
  8
0
 10
-9.0
 20
69.28203230275508
 30
0.0
  0
VERTEX
  8
0
 10
-4.5000000000000036
 20
61.487803668695136
 30
0.0
  0
VERTEX
  8
0
 10
4.500000000000001
 20
61.487803668695136
 30
0.0
  0
SEQEND
  0
POLYLINE
  8
0
 66
1
 10
0.0
 20
0.0
 30
0.0
 70
9
  0
VERTEX
  8
0
 10
9.0
 20
86.60254037844385
 30
0.0
  0
VERTEX
  8
0
 10
4.500000000000001
 20
94.3967690125038
 30
0.0
  0
VERTEX
  8
0
 10
-4.499999999999998
 20
94.3967690125038
 30
0.0
  0
VERTEX
  8
0
 10
-9.0
 20
86.60254037844385
 30
0.0
  0
VERTEX
  8
0
 10
-4.5000000000000036
 20
78.8083117443839
 30
0.0
  0
VERTEX
  8
0
 10
4.500000000000001
 20
78.8083117443839
 30
0.0
  0
SEQEND
  0
POLYLINE
  8
0
 66
1
 10
0.0
 20
0.0
 30
0.0
 70
9
  0
VERTEX
  8
0
 10
9.0
 20
103.92304845413264
 30
0.0
  0
VERTEX
  8
0
 10
4.500000000000001
 20
111.71727708819259
 30
0.0
  0
VERTEX
  8
0
 10
-4.499999999999998
 20
111.71727708819259
 30
0.0
  0
VERTEX
  8
0
 10
-9.0
 20
103.92304845413264
 30
0.0
  0
VERTEX
  8
0
 10
-4.5000000000000036
 20
96.12881982007269
 30
0.0
  0
VERTEX
  8
0
 10
4.500000000000001
 20
96.12881982007269
 30
0.0
  0
SEQEND
  0
POLYLINE
  8
0
 66
1
 10
0.0
 20
0.0
 30
0.0
 70
9
  0
VERTEX
  8
0
 10
9.0
 20
121.2435565298214
 30
0.0
  0
VERTEX
  8
0
 10
4.500000000000001
 20
129.03778516388135
 30
0.0
  0
VERTEX
  8
0
 10
-4.499999999999998
 20
129.03778516388135
 30
0.0
  0
VERTEX
  8
0
 10
-9.0
 20
121.2435565298214
 30
0.0
  0
VERTEX
  8
0
 10
-4.5000000000000036
 20
113.44932789576146
 30
0.0
  0
VERTEX
  8
0
 10
4.500000000000001
 20
113.44932789576146
 30
0.0
  0
SEQEND
  0
POLYLINE
  8
0
 66
1
 10
0.0
 20
0.0
 30
0.0
 70
9
  0
VERTEX
  8
0
 10
9.0
 20
138.56406460551017
 30
0.0
  0
VERTEX
  8
0
 10
4.500000000000001
 20
146.35829323957012
 30
0.0
  0
VERTEX
  8
0
 10
-4.499999999999998
 20
146.35829323957012
 30
0.0
  0
VERTEX
  8
0
 10
-9.0
 20
138.56406460551017
 30
0.0
  0
VERTEX
  8
0
 10
-4.5000000000000036
 20
130.76983597145022
 30
0.0
  0
VERTEX
  8
0
 10
4.500000000000001
 20
130.76983597145022
 30
0.0
  0
SEQEND
  0
POLYLINE
  8
0
 66
1
 10
0.0
 20
0.0
 30
0.0
 70
9
  0
VERTEX
  8
0
 10
9.0
 20
155.88457268119893
 30
0.0
  0
VERTEX
  8
0
 10
4.500000000000001
 20
163.67880131525888
 30
0.0
  0
VERTEX
  8
0
 10
-4.499999999999998
 20
163.67880131525888
 30
0.0
  0
VERTEX
  8
0
 10
-9.0
 20
155.88457268119893
 30
0.0
  0
VERTEX
  8
0
 10
-4.5000000000000036
 20
148.09034404713898
 30
0.0
  0
VERTEX
  8
0
 10
4.500000000000001
 20
148.09034404713898
 30
0.0
  0
SEQEND
  0
POLYLINE
  8
0
 66
1
 10
0.0
 20
0.0
 30
0.0
 70
9
  0
VERTEX
  8
0
 10
24.0
 20
8.660254037844386
 30
0.0
  0
VERTEX
  8
0
 10
19.5
 20
16.454482671904334
 30
0.0
  0
VERTEX
  8
0
 10
10.500000000000002
 20
16.454482671904334
 30
0.0
  0
VERTEX
  8
0
 10
6.0
 20
8.660254037844387
 30
0.0
  0
VERTEX
  8
0
 10
10.499999999999996
 20
0.8660254037844393
 30
0.0
  0
VERTEX
  8
0
 10
19.5
 20
0.8660254037844384
 30
0.0
  0
SEQEND
  0
POLYLINE
  8
0
 66
1
 10
0.0
 20
0.0
 30
0.0
 70
9
  0
VERTEX
  8
0
 10
24.0
 20
25.98076211353316
 30
0.0
  0
VERTEX
  8
0
 10
19.5
 20
33.77499074759311
 30
0.0
  0
VERTEX
  8
0
 10
10.500000000000002
 20
33.77499074759311
 30
0.0
  0
VERTEX
  8
0
 10
6.0
 20
25.98076211353316
 30
0.0
  0
VERTEX
  8
0
 10
10.499999999999996
 20
18.186533479473212
 30
0.0
  0
VERTEX
  8
0
 10
19.5
 20
18.186533479473212
 30
0.0
  0
SEQEND
  0
POLYLINE
  8
0
 66
1
 10
0.0
 20
0.0
 30
0.0
 70
9
  0
VERTEX
  8
0
 10
24.0
 20
43.301270189221924
 30
0.0
  0
VERTEX
  8
0
 10
19.5
 20
51.09549882328187
 30
0.0
  0
VERTEX
  8
0
 10
10.500000000000002
 20
51.09549882328187
 30
0.0
  0
VERTEX
  8
0
 10
6.0
 20
43.301270189221924
 30
0.0
  0
VERTEX
  8
0
 10
10.499999999999996
 20
35.507041555161976
 30
0.0
  0
VERTEX
  8
0
 10
19.5
 20
35.507041555161976
 30
0.0
  0
SEQEND
  0
POLYLINE
  8
0
 66
1
 10
0.0
 20
0.0
 30
0.0
 70
9
  0
VERTEX
  8
0
 10
24.0
 20
60.6217782649107
 30
0.0
  0
VERTEX
  8
0
 10
19.5
 20
68.41600689897065
 30
0.0
  0
VERTEX
  8
0
 10
10.500000000000002
 20
68.41600689897065
 30
0.0
  0
VERTEX
  8
0
 10
6.0
 20
60.6217782649107
 30
0.0
  0
VERTEX
  8
0
 10
10.499999999999996
 20
52.827549630850754
 30
0.0
  0
VERTEX
  8
0
 10
19.5
 20
52.827549630850754
 30
0.0
  0
SEQEND
  0
POLYLINE
  8
0
 66
1
 10
0.0
 20
0.0
 30
0.0
 70
9
  0
VERTEX
  8
0
 10
24.0
 20
77.94228634059947
 30
0.0
  0
VERTEX
  8
0
 10
19.5
 20
85.73651497465941
 30
0.0
  0
VERTEX
  8
0
 10
10.500000000000002
 20
85.73651497465941
 30
0.0
  0
VERTEX
  8
0
 10
6.0
 20
77.94228634059947
 30
0.0
  0
VERTEX
  8
0
 10
10.499999999999996
 20
70.14805770653952
 30
0.0
  0
VERTEX
  8
0
 10
19.5
 20
70.14805770653952
 30
0.0
  0
SEQEND
  0
POLYLINE
  8
0
 66
1
 10
0.0
 20
0.0
 30
0.0
 70
9
  0
VERTEX
  8
0
 10
24.0
 20
95.26279441628824
 30
0.0
  0
VERTEX
  8
0
 10
19.5
 20
103.05702305034819
 30
0.0
  0
VERTEX
  8
0
 10
10.500000000000002
 20
103.05702305034819
 30
0.0
  0
VERTEX
  8
0
 10
6.0
 20
95.26279441628824
 30
0.0
  0
VERTEX
  8
0
 10
10.499999999999996
 20
87.4685657822283
 30
0.0
  0
VERTEX
  8
0
 10
19.5
 20
87.4685657822283
 30
0.0
  0
SEQEND
  0
POLYLINE
  8
0
 66
1
 10
0.0
 20
0.0
 30
0.0
 70
9
  0
VERTEX
  8
0
 10
24.0
 20
112.58330249197704
 30
0.0
  0
VERTEX
  8
0
 10
19.5
 20
120.37753112603698
 30
0.0
  0
VERTEX
  8
0
 10
10.500000000000002
 20
120.37753112603698
 30
0.0
  0
VERTEX
  8
0
 10
6.0
 20
112.58330249197704
 30
0.0
  0
VERTEX
  8
0
 10
10.499999999999996
 20
104.78907385791709
 30
0.0
  0
VERTEX
  8
0
 10
19.5
 20
104.78907385791709
 30
0.0
  0
SEQEND
  0
POLYLINE
  8
0
 66
1
 10
0.0
 20
0.0
 30
0.0
 70
9
  0
VERTEX
  8
0
 10
24.0
 20
129.9038105676658
 30
0.0
  0
VERTEX
  8
0
 10
19.5
 20
137.69803920172575
 30
0.0
  0
VERTEX
  8
0
 10
10.500000000000002
 20
137.69803920172575
 30
0.0
  0
VERTEX
  8
0
 10
6.0
 20
129.9038105676658
 30
0.0
  0
VERTEX
  8
0
 10
10.499999999999996
 20
122.10958193360585
 30
0.0
  0
VERTEX
  8
0
 10
19.5
 20
122.10958193360585
 30
0.0
  0
SEQEND
  0
POLYLINE
  8
0
 66
1
 10
0.0
 20
0.0
 30
0.0
 70
9
  0
VERTEX
  8
0
 10
24.0
 20
147.22431864335456
 30
0.0
  0
VERTEX
  8
0
 10
19.5
 20
155.0185472774145
 30
0.0
  0
VERTEX
  8
0
 10
10.500000000000002
 20
155.0185472774145
 30
0.0
  0
VERTEX
  8
0
 10
6.0
 20
147.22431864335456
 30
0.0
  0
VERTEX
  8
0
 10
10.499999999999996
 20
139.43009000929462
 30
0.0
  0
VERTEX
  8
0
 10
19.5
 20
139.43009000929462
 30
0.0
  0
SEQEND
  0
POLYLINE
  8
0
 66
1
 10
0.0
 20
0.0
 30
0.0
 70
9
  0
VERTEX
  8
0
 10
24.0
 20
164.54482671904333
 30
0.0
  0
VERTEX
  8
0
 10
19.5
 20
172.33905535310328
 30
0.0
  0
VERTEX
  8
0
 10
10.500000000000002
 20
172.33905535310328
 30
0.0
  0
VERTEX
  8
0
 10
6.0
 20
164.54482671904333
 30
0.0
  0
VERTEX
  8
0
 10
10.499999999999996
 20
156.75059808498338
 30
0.0
  0
VERTEX
  8
0
 10
19.5
 20
156.75059808498338
 30
0.0
  0
SEQEND
  0
POLYLINE
  8
0
 66
1
 10
0.0
 20
0.0
 30
0.0
 70
9
  0
VERTEX
  8
0
 10
39.0
 20
17.32050807568877
 30
0.0
  0
VERTEX
  8
0
 10
34.5
 20
25.11473670974872
 30
0.0
  0
VERTEX
  8
0
 10
25.5
 20
25.11473670974872
 30
0.0
  0
VERTEX
  8
0
 10
21.0
 20
17.32050807568877
 30
0.0
  0
VERTEX
  8
0
 10
25.499999999999996
 20
9.526279441628825
 30
0.0
  0
VERTEX
  8
0
 10
34.5
 20
9.526279441628823
 30
0.0
  0
SEQEND
  0
POLYLINE
  8
0
 66
1
 10
0.0
 20
0.0
 30
0.0
 70
9
  0
VERTEX
  8
0
 10
39.0
 20
34.64101615137754
 30
0.0
  0
VERTEX
  8
0
 10
34.5
 20
42.43524478543749
 30
0.0
  0
VERTEX
  8
0
 10
25.5
 20
42.43524478543749
 30
0.0
  0
VERTEX
  8
0
 10
21.0
 20
34.64101615137754
 30
0.0
  0
VERTEX
  8
0
 10
25.499999999999996
 20
26.846787517317594
 30
0.0
  0
VERTEX
  8
0
 10
34.5
 20
26.846787517317594
 30
0.0
  0
SEQEND
  0
POLYLINE
  8
0
 66
1
 10
0.0
 20
0.0
 30
0.0
 70
9
  0
VERTEX
  8
0
 10
39.0
 20
51.96152422706632
 30
0.0
  0
VERTEX
  8
0
 10
34.5
 20
59.75575286112627
 30
0.0
  0
VERTEX
  8
0
 10
25.5
 20
59.75575286112627
 30
0.0
  0
VERTEX
  8
0
 10
21.0
 20
51.96152422706632
 30
0.0
  0
VERTEX
  8
0
 10
25.499999999999996
 20
44.16729559300637
 30
0.0
  0
VERTEX
  8
0
 10
34.5
 20
44.16729559300637
 30
0.0
  0
SEQEND
  0
POLYLINE
  8
0
 66
1
 10
0.0
 20
0.0
 30
0.0
 70
9
  0
VERTEX
  8
0
 10
39.0
 20
69.28203230275508
 30
0.0
  0
VERTEX
  8
0
 10
34.5
 20
77.07626093681503
 30
0.0
  0
VERTEX
  8
0
 10
25.5
 20
77.07626093681503
 30
0.0
  0
VERTEX
  8
0
 10
21.0
 20
69.28203230275508
 30
0.0
  0
VERTEX
  8
0
 10
25.499999999999996
 20
61.487803668695136
 30
0.0
  0
VERTEX
  8
0
 10
34.5
 20
61.487803668695136
 30
0.0
  0
SEQEND
  0
POLYLINE
  8
0
 66
1
 10
0.0
 20
0.0
 30
0.0
 70
9
  0
VERTEX
  8
0
 10
39.0
 20
86.60254037844385
 30
0.0
  0
VERTEX
  8
0
 10
34.5
 20
94.3967690125038
 30
0.0
  0
VERTEX
  8
0
 10
25.5
 20
94.3967690125038
 30
0.0
  0
VERTEX
  8
0
 10
21.0
 20
86.60254037844385
 30
0.0
  0
VERTEX
  8
0
 10
25.499999999999996
 20
78.8083117443839
 30
0.0
  0
VERTEX
  8
0
 10
34.5
 20
78.8083117443839
 30
0.0
  0
SEQEND
  0
POLYLINE
  8
0
 66
1
 10
0.0
 20
0.0
 30
0.0
 70
9
  0
VERTEX
  8
0
 10
39.0
 20
103.92304845413263
 30
0.0
  0
VERTEX
  8
0
 10
34.5
 20
111.71727708819257
 30
0.0
  0
VERTEX
  8
0
 10
25.5
 20
111.71727708819257
 30
0.0
  0
VERTEX
  8
0
 10
21.0
 20
103.92304845413263
 30
0.0
  0
VERTEX
  8
0
 10
25.499999999999996
 20
96.12881982007268
 30
0.0
  0
VERTEX
  8
0
 10
34.5
 20
96.12881982007268
 30
0.0
  0
SEQEND
  0
POLYLINE
  8
0
 66
1
 10
0.0
 20
0.0
 30
0.0
 70
9
  0
VERTEX
  8
0
 10
39.0
 20
121.2435565298214
 30
0.0
  0
VERTEX
  8
0
 10
34.5
 20
129.03778516388135
 30
0.0
  0
VERTEX
  8
0
 10
25.5
 20
129.03778516388135
 30
0.0
  0
VERTEX
  8
0
 10
21.0
 20
121.2435565298214
 30
0.0
  0
VERTEX
  8
0
 10
25.499999999999996
 20
113.44932789576146
 30
0.0
  0
VERTEX
  8
0
 10
34.5
 20
113.44932789576146
 30
0.0
  0
SEQEND
  0
POLYLINE
  8
0
 66
1
 10
0.0
 20
0.0
 30
0.0
 70
9
  0
VERTEX
  8
0
 10
39.0
 20
138.56406460551017
 30
0.0
  0
VERTEX
  8
0
 10
34.5
 20
146.35829323957012
 30
0.0
  0
VERTEX
  8
0
 10
25.5
 20
146.35829323957012
 30
0.0
  0
VERTEX
  8
0
 10
21.0
 20
138.56406460551017
 30
0.0
  0
VERTEX
  8
0
 10
25.499999999999996
 20
130.76983597145022
 30
0.0
  0
VERTEX
  8
0
 10
34.5
 20
130.76983597145022
 30
0.0
  0
SEQEND
  0
POLYLINE
  8
0
 66
1
 10
0.0
 20
0.0
 30
0.0
 70
9
  0
VERTEX
  8
0
 10
39.0
 20
155.88457268119893
 30
0.0
  0
VERTEX
  8
0
 10
34.5
 20
163.67880131525888
 30
0.0
  0
VERTEX
  8
0
 10
25.5
 20
163.67880131525888
 30
0.0
  0
VERTEX
  8
0
 10
21.0
 20
155.88457268119893
 30
0.0
  0
VERTEX
  8
0
 10
25.499999999999996
 20
148.09034404713898
 30
0.0
  0
VERTEX
  8
0
 10
34.5
 20
148.09034404713898
 30
0.0
  0
SEQEND
  0
POLYLINE
  8
0
 66
1
 10
0.0
 20
0.0
 30
0.0
 70
9
  0
VERTEX
  8
0
 10
39.0
 20
173.2050807568877
 30
0.0
  0
VERTEX
  8
0
 10
34.5
 20
180.99930939094764
 30
0.0
  0
VERTEX
  8
0
 10
25.5
 20
180.99930939094764
 30
0.0
  0
VERTEX
  8
0
 10
21.0
 20
173.2050807568877
 30
0.0
  0
VERTEX
  8
0
 10
25.499999999999996
 20
165.41085212282775
 30
0.0
  0
VERTEX
  8
0
 10
34.5
 20
165.41085212282775
 30
0.0
  0
SEQEND
  0
POLYLINE
  8
0
 66
1
 10
0.0
 20
0.0
 30
0.0
 70
9
  0
VERTEX
  8
0
 10
54.0
 20
25.98076211353316
 30
0.0
  0
VERTEX
  8
0
 10
49.5
 20
33.77499074759311
 30
0.0
  0
VERTEX
  8
0
 10
40.5
 20
33.77499074759311
 30
0.0
  0
VERTEX
  8
0
 10
36.0
 20
25.98076211353316
 30
0.0
  0
VERTEX
  8
0
 10
40.5
 20
18.186533479473212
 30
0.0
  0
VERTEX
  8
0
 10
49.5
 20
18.186533479473212
 30
0.0
  0
SEQEND
  0
POLYLINE
  8
0
 66
1
 10
0.0
 20
0.0
 30
0.0
 70
9
  0
VERTEX
  8
0
 10
54.0
 20
43.301270189221924
 30
0.0
  0
VERTEX
  8
0
 10
49.5
 20
51.09549882328187
 30
0.0
  0
VERTEX
  8
0
 10
40.5
 20
51.09549882328187
 30
0.0
  0
VERTEX
  8
0
 10
36.0
 20
43.301270189221924
 30
0.0
  0
VERTEX
  8
0
 10
40.5
 20
35.507041555161976
 30
0.0
  0
VERTEX
  8
0
 10
49.5
 20
35.507041555161976
 30
0.0
  0
SEQEND
  0
POLYLINE
  8
0
 66
1
 10
0.0
 20
0.0
 30
0.0
 70
9
  0
VERTEX
  8
0
 10
54.0
 20
60.6217782649107
 30
0.0
  0
VERTEX
  8
0
 10
49.5
 20
68.41600689897065
 30
0.0
  0
VERTEX
  8
0
 10
40.5
 20
68.41600689897065
 30
0.0
  0
VERTEX
  8
0
 10
36.0
 20
60.6217782649107
 30
0.0
  0
VERTEX
  8
0
 10
40.5
 20
52.827549630850754
 30
0.0
  0
VERTEX
  8
0
 10
49.5
 20
52.827549630850754
 30
0.0
  0
SEQEND
  0
POLYLINE
  8
0
 66
1
 10
0.0
 20
0.0
 30
0.0
 70
9
  0
VERTEX
  8
0
 10
54.0
 20
77.94228634059948
 30
0.0
  0
VERTEX
  8
0
 10
49.5
 20
85.73651497465943
 30
0.0
  0
VERTEX
  8
0
 10
40.5
 20
85.73651497465943
 30
0.0
  0
VERTEX
  8
0
 10
36.0
 20
77.94228634059948
 30
0.0
  0
VERTEX
  8
0
 10
40.5
 20
70.14805770653953
 30
0.0
  0
VERTEX
  8
0
 10
49.5
 20
70.14805770653953
 30
0.0
  0
SEQEND
  0
POLYLINE
  8
0
 66
1
 10
0.0
 20
0.0
 30
0.0
 70
9
  0
VERTEX
  8
0
 10
54.0
 20
95.26279441628824
 30
0.0
  0
VERTEX
  8
0
 10
49.5
 20
103.05702305034819
 30
0.0
  0
VERTEX
  8
0
 10
40.5
 20
103.05702305034819
 30
0.0
  0
VERTEX
  8
0
 10
36.0
 20
95.26279441628824
 30
0.0
  0
VERTEX
  8
0
 10
40.5
 20
87.4685657822283
 30
0.0
  0
VERTEX
  8
0
 10
49.5
 20
87.4685657822283
 30
0.0
  0
SEQEND
  0
POLYLINE
  8
0
 66
1
 10
0.0
 20
0.0
 30
0.0
 70
9
  0
VERTEX
  8
0
 10
54.0
 20
112.58330249197701
 30
0.0
  0
VERTEX
  8
0
 10
49.5
 20
120.37753112603696
 30
0.0
  0
VERTEX
  8
0
 10
40.5
 20
120.37753112603696
 30
0.0
  0
VERTEX
  8
0
 10
36.0
 20
112.58330249197701
 30
0.0
  0
VERTEX
  8
0
 10
40.5
 20
104.78907385791706
 30
0.0
  0
VERTEX
  8
0
 10
49.5
 20
104.78907385791706
 30
0.0
  0
SEQEND
  0
POLYLINE
  8
0
 66
1
 10
0.0
 20
0.0
 30
0.0
 70
9
  0
VERTEX
  8
0
 10
54.0
 20
129.9038105676658
 30
0.0
  0
VERTEX
  8
0
 10
49.5
 20
137.69803920172575
 30
0.0
  0
VERTEX
  8
0
 10
40.5
 20
137.69803920172575
 30
0.0
  0
VERTEX
  8
0
 10
36.0
 20
129.9038105676658
 30
0.0
  0
VERTEX
  8
0
 10
40.5
 20
122.10958193360585
 30
0.0
  0
VERTEX
  8
0
 10
49.5
 20
122.10958193360585
 30
0.0
  0
SEQEND
  0
POLYLINE
  8
0
 66
1
 10
0.0
 20
0.0
 30
0.0
 70
9
  0
VERTEX
  8
0
 10
54.0
 20
147.22431864335456
 30
0.0
  0
VERTEX
  8
0
 10
49.5
 20
155.0185472774145
 30
0.0
  0
VERTEX
  8
0
 10
40.5
 20
155.0185472774145
 30
0.0
  0
VERTEX
  8
0
 10
36.0
 20
147.22431864335456
 30
0.0
  0
VERTEX
  8
0
 10
40.5
 20
139.43009000929462
 30
0.0
  0
VERTEX
  8
0
 10
49.5
 20
139.43009000929462
 30
0.0
  0
SEQEND
  0
POLYLINE
  8
0
 66
1
 10
0.0
 20
0.0
 30
0.0
 70
9
  0
VERTEX
  8
0
 10
54.0
 20
164.54482671904333
 30
0.0
  0
VERTEX
  8
0
 10
49.5
 20
172.33905535310328
 30
0.0
  0
VERTEX
  8
0
 10
40.5
 20
172.33905535310328
 30
0.0
  0
VERTEX
  8
0
 10
36.0
 20
164.54482671904333
 30
0.0
  0
VERTEX
  8
0
 10
40.5
 20
156.75059808498338
 30
0.0
  0
VERTEX
  8
0
 10
49.5
 20
156.75059808498338
 30
0.0
  0
SEQEND
  0
POLYLINE
  8
0
 66
1
 10
0.0
 20
0.0
 30
0.0
 70
9
  0
VERTEX
  8
0
 10
54.0
 20
181.86533479473212
 30
0.0
  0
VERTEX
  8
0
 10
49.5
 20
189.65956342879207
 30
0.0
  0
VERTEX
  8
0
 10
40.5
 20
189.65956342879207
 30
0.0
  0
VERTEX
  8
0
 10
36.0
 20
181.86533479473212
 30
0.0
  0
VERTEX
  8
0
 10
40.5
 20
174.07110616067217
 30
0.0
  0
VERTEX
  8
0
 10
49.5
 20
174.07110616067217
 30
0.0
  0
SEQEND
  0
POLYLINE
  8
0
 66
1
 10
0.0
 20
0.0
 30
0.0
 70
9
  0
VERTEX
  8
0
 10
69.0
 20
34.64101615137754
 30
0.0
  0
VERTEX
  8
0
 10
64.5
 20
42.43524478543749
 30
0.0
  0
VERTEX
  8
0
 10
55.5
 20
42.43524478543749
 30
0.0
  0
VERTEX
  8
0
 10
51.0
 20
34.64101615137754
 30
0.0
  0
VERTEX
  8
0
 10
55.5
 20
26.846787517317594
 30
0.0
  0
VERTEX
  8
0
 10
64.5
 20
26.846787517317594
 30
0.0
  0
SEQEND
  0
POLYLINE
  8
0
 66
1
 10
0.0
 20
0.0
 30
0.0
 70
9
  0
VERTEX
  8
0
 10
69.0
 20
51.96152422706632
 30
0.0
  0
VERTEX
  8
0
 10
64.5
 20
59.75575286112627
 30
0.0
  0
VERTEX
  8
0
 10
55.5
 20
59.75575286112627
 30
0.0
  0
VERTEX
  8
0
 10
51.0
 20
51.96152422706632
 30
0.0
  0
VERTEX
  8
0
 10
55.5
 20
44.16729559300637
 30
0.0
  0
VERTEX
  8
0
 10
64.5
 20
44.16729559300637
 30
0.0
  0
SEQEND
  0
POLYLINE
  8
0
 66
1
 10
0.0
 20
0.0
 30
0.0
 70
9
  0
VERTEX
  8
0
 10
69.0
 20
69.28203230275508
 30
0.0
  0
VERTEX
  8
0
 10
64.5
 20
77.07626093681503
 30
0.0
  0
VERTEX
  8
0
 10
55.5
 20
77.07626093681503
 30
0.0
  0
VERTEX
  8
0
 10
51.0
 20
69.28203230275508
 30
0.0
  0
VERTEX
  8
0
 10
55.5
 20
61.487803668695136
 30
0.0
  0
VERTEX
  8
0
 10
64.5
 20
61.487803668695136
 30
0.0
  0
SEQEND
  0
POLYLINE
  8
0
 66
1
 10
0.0
 20
0.0
 30
0.0
 70
9
  0
VERTEX
  8
0
 10
69.0
 20
86.60254037844385
 30
0.0
  0
VERTEX
  8
0
 10
64.5
 20
94.3967690125038
 30
0.0
  0
VERTEX
  8
0
 10
55.5
 20
94.3967690125038
 30
0.0
  0
VERTEX
  8
0
 10
51.0
 20
86.60254037844385
 30
0.0
  0
VERTEX
  8
0
 10
55.5
 20
78.8083117443839
 30
0.0
  0
VERTEX
  8
0
 10
64.5
 20
78.8083117443839
 30
0.0
  0
SEQEND
  0
POLYLINE
  8
0
 66
1
 10
0.0
 20
0.0
 30
0.0
 70
9
  0
VERTEX
  8
0
 10
69.0
 20
103.92304845413264
 30
0.0
  0
VERTEX
  8
0
 10
64.5
 20
111.71727708819259
 30
0.0
  0
VERTEX
  8
0
 10
55.5
 20
111.71727708819259
 30
0.0
  0
VERTEX
  8
0
 10
51.0
 20
103.92304845413264
 30
0.0
  0
VERTEX
  8
0
 10
55.5
 20
96.12881982007269
 30
0.0
  0
VERTEX
  8
0
 10
64.5
 20
96.12881982007269
 30
0.0
  0
SEQEND
  0
POLYLINE
  8
0
 66
1
 10
0.0
 20
0.0
 30
0.0
 70
9
  0
VERTEX
  8
0
 10
69.0
 20
121.24355652982139
 30
0.0
  0
VERTEX
  8
0
 10
64.5
 20
129.03778516388132
 30
0.0
  0
VERTEX
  8
0
 10
55.5
 20
129.03778516388132
 30
0.0
  0
VERTEX
  8
0
 10
51.0
 20
121.24355652982139
 30
0.0
  0
VERTEX
  8
0
 10
55.5
 20
113.44932789576144
 30
0.0
  0
VERTEX
  8
0
 10
64.5
 20
113.44932789576144
 30
0.0
  0
SEQEND
  0
POLYLINE
  8
0
 66
1
 10
0.0
 20
0.0
 30
0.0
 70
9
  0
VERTEX
  8
0
 10
69.0
 20
138.56406460551017
 30
0.0
  0
VERTEX
  8
0
 10
64.5
 20
146.35829323957012
 30
0.0
  0
VERTEX
  8
0
 10
55.5
 20
146.35829323957012
 30
0.0
  0
VERTEX
  8
0
 10
51.0
 20
138.56406460551017
 30
0.0
  0
VERTEX
  8
0
 10
55.5
 20
130.76983597145022
 30
0.0
  0
VERTEX
  8
0
 10
64.5
 20
130.76983597145022
 30
0.0
  0
SEQEND
  0
POLYLINE
  8
0
 66
1
 10
0.0
 20
0.0
 30
0.0
 70
9
  0
VERTEX
  8
0
 10
69.0
 20
155.88457268119896
 30
0.0
  0
VERTEX
  8
0
 10
64.5
 20
163.6788013152589
 30
0.0
  0
VERTEX
  8
0
 10
55.5
 20
163.6788013152589
 30
0.0
  0
VERTEX
  8
0
 10
51.0
 20
155.88457268119896
 30
0.0
  0
VERTEX
  8
0
 10
55.5
 20
148.090344047139
 30
0.0
  0
VERTEX
  8
0
 10
64.5
 20
148.090344047139
 30
0.0
  0
SEQEND
  0
POLYLINE
  8
0
 66
1
 10
0.0
 20
0.0
 30
0.0
 70
9
  0
VERTEX
  8
0
 10
69.0
 20
173.2050807568877
 30
0.0
  0
VERTEX
  8
0
 10
64.5
 20
180.99930939094764
 30
0.0
  0
VERTEX
  8
0
 10
55.5
 20
180.99930939094764
 30
0.0
  0
VERTEX
  8
0
 10
51.0
 20
173.2050807568877
 30
0.0
  0
VERTEX
  8
0
 10
55.5
 20
165.41085212282775
 30
0.0
  0
VERTEX
  8
0
 10
64.5
 20
165.41085212282775
 30
0.0
  0
SEQEND
  0
POLYLINE
  8
0
 66
1
 10
0.0
 20
0.0
 30
0.0
 70
9
  0
VERTEX
  8
0
 10
69.0
 20
190.5255888325765
 30
0.0
  0
VERTEX
  8
0
 10
64.5
 20
198.31981746663644
 30
0.0
  0
VERTEX
  8
0
 10
55.5
 20
198.31981746663644
 30
0.0
  0
VERTEX
  8
0
 10
51.0
 20
190.5255888325765
 30
0.0
  0
VERTEX
  8
0
 10
55.5
 20
182.73136019851654
 30
0.0
  0
VERTEX
  8
0
 10
64.5
 20
182.73136019851654
 30
0.0
  0
SEQEND
  0
POLYLINE
  8
0
 66
1
 10
0.0
 20
0.0
 30
0.0
 70
9
  0
VERTEX
  8
0
 10
84.0
 20
43.301270189221924
 30
0.0
  0
VERTEX
  8
0
 10
79.5
 20
51.09549882328187
 30
0.0
  0
VERTEX
  8
0
 10
70.5
 20
51.09549882328187
 30
0.0
  0
VERTEX
  8
0
 10
66.0
 20
43.301270189221924
 30
0.0
  0
VERTEX
  8
0
 10
70.5
 20
35.507041555161976
 30
0.0
  0
VERTEX
  8
0
 10
79.5
 20
35.507041555161976
 30
0.0
  0
SEQEND
  0
POLYLINE
  8
0
 66
1
 10
0.0
 20
0.0
 30
0.0
 70
9
  0
VERTEX
  8
0
 10
84.0
 20
60.621778264910695
 30
0.0
  0
VERTEX
  8
0
 10
79.5
 20
68.41600689897064
 30
0.0
  0
VERTEX
  8
0
 10
70.5
 20
68.41600689897064
 30
0.0
  0
VERTEX
  8
0
 10
66.0
 20
60.621778264910695
 30
0.0
  0
VERTEX
  8
0
 10
70.5
 20
52.82754963085075
 30
0.0
  0
VERTEX
  8
0
 10
79.5
 20
52.82754963085075
 30
0.0
  0
SEQEND
  0
POLYLINE
  8
0
 66
1
 10
0.0
 20
0.0
 30
0.0
 70
9
  0
VERTEX
  8
0
 10
84.0
 20
77.94228634059947
 30
0.0
  0
VERTEX
  8
0
 10
79.5
 20
85.73651497465941
 30
0.0
  0
VERTEX
  8
0
 10
70.5
 20
85.73651497465941
 30
0.0
  0
VERTEX
  8
0
 10
66.0
 20
77.94228634059947
 30
0.0
  0
VERTEX
  8
0
 10
70.5
 20
70.14805770653952
 30
0.0
  0
VERTEX
  8
0
 10
79.5
 20
70.14805770653952
 30
0.0
  0
SEQEND
  0
POLYLINE
  8
0
 66
1
 10
0.0
 20
0.0
 30
0.0
 70
9
  0
VERTEX
  8
0
 10
84.0
 20
95.26279441628824
 30
0.0
  0
VERTEX
  8
0
 10
79.5
 20
103.05702305034819
 30
0.0
  0
VERTEX
  8
0
 10
70.5
 20
103.05702305034819
 30
0.0
  0
VERTEX
  8
0
 10
66.0
 20
95.26279441628824
 30
0.0
  0
VERTEX
  8
0
 10
70.5
 20
87.4685657822283
 30
0.0
  0
VERTEX
  8
0
 10
79.5
 20
87.4685657822283
 30
0.0
  0
SEQEND
  0
POLYLINE
  8
0
 66
1
 10
0.0
 20
0.0
 30
0.0
 70
9
  0
VERTEX
  8
0
 10
84.0
 20
112.58330249197701
 30
0.0
  0
VERTEX
  8
0
 10
79.5
 20
120.37753112603696
 30
0.0
  0
VERTEX
  8
0
 10
70.5
 20
120.37753112603696
 30
0.0
  0
VERTEX
  8
0
 10
66.0
 20
112.58330249197701
 30
0.0
  0
VERTEX
  8
0
 10
70.5
 20
104.78907385791706
 30
0.0
  0
VERTEX
  8
0
 10
79.5
 20
104.78907385791706
 30
0.0
  0
SEQEND
  0
POLYLINE
  8
0
 66
1
 10
0.0
 20
0.0
 30
0.0
 70
9
  0
VERTEX
  8
0
 10
84.0
 20
129.90381056766577
 30
0.0
  0
VERTEX
  8
0
 10
79.5
 20
137.69803920172572
 30
0.0
  0
VERTEX
  8
0
 10
70.5
 20
137.69803920172572
 30
0.0
  0
VERTEX
  8
0
 10
66.0
 20
129.90381056766577
 30
0.0
  0
VERTEX
  8
0
 10
70.5
 20
122.10958193360582
 30
0.0
  0
VERTEX
  8
0
 10
79.5
 20
122.10958193360582
 30
0.0
  0
SEQEND
  0
POLYLINE
  8
0
 66
1
 10
0.0
 20
0.0
 30
0.0
 70
9
  0
VERTEX
  8
0
 10
84.0
 20
147.22431864335456
 30
0.0
  0
VERTEX
  8
0
 10
79.5
 20
155.0185472774145
 30
0.0
  0
VERTEX
  8
0
 10
70.5
 20
155.0185472774145
 30
0.0
  0
VERTEX
  8
0
 10
66.0
 20
147.22431864335456
 30
0.0
  0
VERTEX
  8
0
 10
70.5
 20
139.43009000929462
 30
0.0
  0
VERTEX
  8
0
 10
79.5
 20
139.43009000929462
 30
0.0
  0
SEQEND
  0
POLYLINE
  8
0
 66
1
 10
0.0
 20
0.0
 30
0.0
 70
9
  0
VERTEX
  8
0
 10
84.0
 20
164.54482671904333
 30
0.0
  0
VERTEX
  8
0
 10
79.5
 20
172.33905535310328
 30
0.0
  0
VERTEX
  8
0
 10
70.5
 20
172.33905535310328
 30
0.0
  0
VERTEX
  8
0
 10
66.0
 20
164.54482671904333
 30
0.0
  0
VERTEX
  8
0
 10
70.5
 20
156.75059808498338
 30
0.0
  0
VERTEX
  8
0
 10
79.5
 20
156.75059808498338
 30
0.0
  0
SEQEND
  0
POLYLINE
  8
0
 66
1
 10
0.0
 20
0.0
 30
0.0
 70
9
  0
VERTEX
  8
0
 10
84.0
 20
181.86533479473212
 30
0.0
  0
VERTEX
  8
0
 10
79.5
 20
189.65956342879207
 30
0.0
  0
VERTEX
  8
0
 10
70.5
 20
189.65956342879207
 30
0.0
  0
VERTEX
  8
0
 10
66.0
 20
181.86533479473212
 30
0.0
  0
VERTEX
  8
0
 10
70.5
 20
174.07110616067217
 30
0.0
  0
VERTEX
  8
0
 10
79.5
 20
174.07110616067217
 30
0.0
  0
SEQEND
  0
POLYLINE
  8
0
 66
1
 10
0.0
 20
0.0
 30
0.0
 70
9
  0
VERTEX
  8
0
 10
84.0
 20
199.18584287042086
 30
0.0
  0
VERTEX
  8
0
 10
79.5
 20
206.9800715044808
 30
0.0
  0
VERTEX
  8
0
 10
70.5
 20
206.9800715044808
 30
0.0
  0
VERTEX
  8
0
 10
66.0
 20
199.18584287042086
 30
0.0
  0
VERTEX
  8
0
 10
70.5
 20
191.3916142363609
 30
0.0
  0
VERTEX
  8
0
 10
79.5
 20
191.3916142363609
 30
0.0
  0
SEQEND
  0
POLYLINE
  8
0
 66
1
 10
0.0
 20
0.0
 30
0.0
 70
9
  0
VERTEX
  8
0
 10
99.0
 20
51.96152422706632
 30
0.0
  0
VERTEX
  8
0
 10
94.5
 20
59.75575286112627
 30
0.0
  0
VERTEX
  8
0
 10
85.5
 20
59.75575286112627
 30
0.0
  0
VERTEX
  8
0
 10
81.0
 20
51.96152422706632
 30
0.0
  0
VERTEX
  8
0
 10
85.5
 20
44.16729559300637
 30
0.0
  0
VERTEX
  8
0
 10
94.5
 20
44.16729559300637
 30
0.0
  0
SEQEND
  0
POLYLINE
  8
0
 66
1
 10
0.0
 20
0.0
 30
0.0
 70
9
  0
VERTEX
  8
0
 10
99.0
 20
69.28203230275508
 30
0.0
  0
VERTEX
  8
0
 10
94.5
 20
77.07626093681503
 30
0.0
  0
VERTEX
  8
0
 10
85.5
 20
77.07626093681503
 30
0.0
  0
VERTEX
  8
0
 10
81.0
 20
69.28203230275508
 30
0.0
  0
VERTEX
  8
0
 10
85.5
 20
61.487803668695136
 30
0.0
  0
VERTEX
  8
0
 10
94.5
 20
61.487803668695136
 30
0.0
  0
SEQEND
  0
POLYLINE
  8
0
 66
1
 10
0.0
 20
0.0
 30
0.0
 70
9
  0
VERTEX
  8
0
 10
99.0
 20
86.60254037844385
 30
0.0
  0
VERTEX
  8
0
 10
94.5
 20
94.3967690125038
 30
0.0
  0
VERTEX
  8
0
 10
85.5
 20
94.3967690125038
 30
0.0
  0
VERTEX
  8
0
 10
81.0
 20
86.60254037844385
 30
0.0
  0
VERTEX
  8
0
 10
85.5
 20
78.8083117443839
 30
0.0
  0
VERTEX
  8
0
 10
94.5
 20
78.8083117443839
 30
0.0
  0
SEQEND
  0
POLYLINE
  8
0
 66
1
 10
0.0
 20
0.0
 30
0.0
 70
9
  0
VERTEX
  8
0
 10
99.0
 20
103.92304845413264
 30
0.0
  0
VERTEX
  8
0
 10
94.5
 20
111.71727708819259
 30
0.0
  0
VERTEX
  8
0
 10
85.5
 20
111.71727708819259
 30
0.0
  0
VERTEX
  8
0
 10
81.0
 20
103.92304845413264
 30
0.0
  0
VERTEX
  8
0
 10
85.5
 20
96.12881982007269
 30
0.0
  0
VERTEX
  8
0
 10
94.5
 20
96.12881982007269
 30
0.0
  0
SEQEND
  0
POLYLINE
  8
0
 66
1
 10
0.0
 20
0.0
 30
0.0
 70
9
  0
VERTEX
  8
0
 10
99.0
 20
121.2435565298214
 30
0.0
  0
VERTEX
  8
0
 10
94.5
 20
129.03778516388135
 30
0.0
  0
VERTEX
  8
0
 10
85.5
 20
129.03778516388135
 30
0.0
  0
VERTEX
  8
0
 10
81.0
 20
121.2435565298214
 30
0.0
  0
VERTEX
  8
0
 10
85.5
 20
113.44932789576146
 30
0.0
  0
VERTEX
  8
0
 10
94.5
 20
113.44932789576146
 30
0.0
  0
SEQEND
  0
POLYLINE
  8
0
 66
1
 10
0.0
 20
0.0
 30
0.0
 70
9
  0
VERTEX
  8
0
 10
99.0
 20
138.56406460551017
 30
0.0
  0
VERTEX
  8
0
 10
94.5
 20
146.35829323957012
 30
0.0
  0
VERTEX
  8
0
 10
85.5
 20
146.35829323957012
 30
0.0
  0
VERTEX
  8
0
 10
81.0
 20
138.56406460551017
 30
0.0
  0
VERTEX
  8
0
 10
85.5
 20
130.76983597145022
 30
0.0
  0
VERTEX
  8
0
 10
94.5
 20
130.76983597145022
 30
0.0
  0
SEQEND
  0
POLYLINE
  8
0
 66
1
 10
0.0
 20
0.0
 30
0.0
 70
9
  0
VERTEX
  8
0
 10
99.0
 20
155.88457268119896
 30
0.0
  0
VERTEX
  8
0
 10
94.5
 20
163.6788013152589
 30
0.0
  0
VERTEX
  8
0
 10
85.5
 20
163.6788013152589
 30
0.0
  0
VERTEX
  8
0
 10
81.0
 20
155.88457268119896
 30
0.0
  0
VERTEX
  8
0
 10
85.5
 20
148.090344047139
 30
0.0
  0
VERTEX
  8
0
 10
94.5
 20
148.090344047139
 30
0.0
  0
SEQEND
  0
POLYLINE
  8
0
 66
1
 10
0.0
 20
0.0
 30
0.0
 70
9
  0
VERTEX
  8
0
 10
99.0
 20
173.2050807568877
 30
0.0
  0
VERTEX
  8
0
 10
94.5
 20
180.99930939094764
 30
0.0
  0
VERTEX
  8
0
 10
85.5
 20
180.99930939094764
 30
0.0
  0
VERTEX
  8
0
 10
81.0
 20
173.2050807568877
 30
0.0
  0
VERTEX
  8
0
 10
85.5
 20
165.41085212282775
 30
0.0
  0
VERTEX
  8
0
 10
94.5
 20
165.41085212282775
 30
0.0
  0
SEQEND
  0
POLYLINE
  8
0
 66
1
 10
0.0
 20
0.0
 30
0.0
 70
9
  0
VERTEX
  8
0
 10
99.0
 20
190.5255888325765
 30
0.0
  0
VERTEX
  8
0
 10
94.5
 20
198.31981746663644
 30
0.0
  0
VERTEX
  8
0
 10
85.5
 20
198.31981746663644
 30
0.0
  0
VERTEX
  8
0
 10
81.0
 20
190.5255888325765
 30
0.0
  0
VERTEX
  8
0
 10
85.5
 20
182.73136019851654
 30
0.0
  0
VERTEX
  8
0
 10
94.5
 20
182.73136019851654
 30
0.0
  0
SEQEND
  0
POLYLINE
  8
0
 66
1
 10
0.0
 20
0.0
 30
0.0
 70
9
  0
VERTEX
  8
0
 10
99.0
 20
207.84609690826528
 30
0.0
  0
VERTEX
  8
0
 10
94.5
 20
215.64032554232523
 30
0.0
  0
VERTEX
  8
0
 10
85.5
 20
215.64032554232523
 30
0.0
  0
VERTEX
  8
0
 10
81.0
 20
207.84609690826528
 30
0.0
  0
VERTEX
  8
0
 10
85.5
 20
200.05186827420533
 30
0.0
  0
VERTEX
  8
0
 10
94.5
 20
200.05186827420533
 30
0.0
  0
SEQEND
  0
POLYLINE
  8
0
 66
1
 10
0.0
 20
0.0
 30
0.0
 70
9
  0
VERTEX
  8
0
 10
114.0
 20
60.6217782649107
 30
0.0
  0
VERTEX
  8
0
 10
109.5
 20
68.41600689897065
 30
0.0
  0
VERTEX
  8
0
 10
100.5
 20
68.41600689897065
 30
0.0
  0
VERTEX
  8
0
 10
96.0
 20
60.6217782649107
 30
0.0
  0
VERTEX
  8
0
 10
100.5
 20
52.827549630850754
 30
0.0
  0
VERTEX
  8
0
 10
109.5
 20
52.827549630850754
 30
0.0
  0
SEQEND
  0
POLYLINE
  8
0
 66
1
 10
0.0
 20
0.0
 30
0.0
 70
9
  0
VERTEX
  8
0
 10
114.0
 20
77.94228634059948
 30
0.0
  0
VERTEX
  8
0
 10
109.5
 20
85.73651497465943
 30
0.0
  0
VERTEX
  8
0
 10
100.5
 20
85.73651497465943
 30
0.0
  0
VERTEX
  8
0
 10
96.0
 20
77.94228634059948
 30
0.0
  0
VERTEX
  8
0
 10
100.5
 20
70.14805770653953
 30
0.0
  0
VERTEX
  8
0
 10
109.5
 20
70.14805770653953
 30
0.0
  0
SEQEND
  0
POLYLINE
  8
0
 66
1
 10
0.0
 20
0.0
 30
0.0
 70
9
  0
VERTEX
  8
0
 10
114.0
 20
95.26279441628824
 30
0.0
  0
VERTEX
  8
0
 10
109.5
 20
103.05702305034819
 30
0.0
  0
VERTEX
  8
0
 10
100.5
 20
103.05702305034819
 30
0.0
  0
VERTEX
  8
0
 10
96.0
 20
95.26279441628824
 30
0.0
  0
VERTEX
  8
0
 10
100.5
 20
87.4685657822283
 30
0.0
  0
VERTEX
  8
0
 10
109.5
 20
87.4685657822283
 30
0.0
  0
SEQEND
  0
POLYLINE
  8
0
 66
1
 10
0.0
 20
0.0
 30
0.0
 70
9
  0
VERTEX
  8
0
 10
114.0
 20
112.58330249197701
 30
0.0
  0
VERTEX
  8
0
 10
109.5
 20
120.37753112603696
 30
0.0
  0
VERTEX
  8
0
 10
100.5
 20
120.37753112603696
 30
0.0
  0
VERTEX
  8
0
 10
96.0
 20
112.58330249197701
 30
0.0
  0
VERTEX
  8
0
 10
100.5
 20
104.78907385791706
 30
0.0
  0
VERTEX
  8
0
 10
109.5
 20
104.78907385791706
 30
0.0
  0
SEQEND
  0
POLYLINE
  8
0
 66
1
 10
0.0
 20
0.0
 30
0.0
 70
9
  0
VERTEX
  8
0
 10
114.0
 20
129.9038105676658
 30
0.0
  0
VERTEX
  8
0
 10
109.5
 20
137.69803920172575
 30
0.0
  0
VERTEX
  8
0
 10
100.5
 20
137.69803920172575
 30
0.0
  0
VERTEX
  8
0
 10
96.0
 20
129.9038105676658
 30
0.0
  0
VERTEX
  8
0
 10
100.5
 20
122.10958193360585
 30
0.0
  0
VERTEX
  8
0
 10
109.5
 20
122.10958193360585
 30
0.0
  0
SEQEND
  0
POLYLINE
  8
0
 66
1
 10
0.0
 20
0.0
 30
0.0
 70
9
  0
VERTEX
  8
0
 10
114.0
 20
147.22431864335454
 30
0.0
  0
VERTEX
  8
0
 10
109.5
 20
155.01854727741448
 30
0.0
  0
VERTEX
  8
0
 10
100.5
 20
155.01854727741448
 30
0.0
  0
VERTEX
  8
0
 10
96.0
 20
147.22431864335454
 30
0.0
  0
VERTEX
  8
0
 10
100.5
 20
139.4300900092946
 30
0.0
  0
VERTEX
  8
0
 10
109.5
 20
139.4300900092946
 30
0.0
  0
SEQEND
  0
POLYLINE
  8
0
 66
1
 10
0.0
 20
0.0
 30
0.0
 70
9
  0
VERTEX
  8
0
 10
114.0
 20
164.54482671904333
 30
0.0
  0
VERTEX
  8
0
 10
109.5
 20
172.33905535310328
 30
0.0
  0
VERTEX
  8
0
 10
100.5
 20
172.33905535310328
 30
0.0
  0
VERTEX
  8
0
 10
96.0
 20
164.54482671904333
 30
0.0
  0
VERTEX
  8
0
 10
100.5
 20
156.75059808498338
 30
0.0
  0
VERTEX
  8
0
 10
109.5
 20
156.75059808498338
 30
0.0
  0
SEQEND
  0
POLYLINE
  8
0
 66
1
 10
0.0
 20
0.0
 30
0.0
 70
9
  0
VERTEX
  8
0
 10
114.0
 20
181.86533479473212
 30
0.0
  0
VERTEX
  8
0
 10
109.5
 20
189.65956342879207
 30
0.0
  0
VERTEX
  8
0
 10
100.5
 20
189.65956342879207
 30
0.0
  0
VERTEX
  8
0
 10
96.0
 20
181.86533479473212
 30
0.0
  0
VERTEX
  8
0
 10
100.5
 20
174.07110616067217
 30
0.0
  0
VERTEX
  8
0
 10
109.5
 20
174.07110616067217
 30
0.0
  0
SEQEND
  0
POLYLINE
  8
0
 66
1
 10
0.0
 20
0.0
 30
0.0
 70
9
  0
VERTEX
  8
0
 10
114.0
 20
199.18584287042086
 30
0.0
  0
VERTEX
  8
0
 10
109.5
 20
206.9800715044808
 30
0.0
  0
VERTEX
  8
0
 10
100.5
 20
206.9800715044808
 30
0.0
  0
VERTEX
  8
0
 10
96.0
 20
199.18584287042086
 30
0.0
  0
VERTEX
  8
0
 10
100.5
 20
191.3916142363609
 30
0.0
  0
VERTEX
  8
0
 10
109.5
 20
191.3916142363609
 30
0.0
  0
SEQEND
  0
POLYLINE
  8
0
 66
1
 10
0.0
 20
0.0
 30
0.0
 70
9
  0
VERTEX
  8
0
 10
114.0
 20
216.50635094610965
 30
0.0
  0
VERTEX
  8
0
 10
109.5
 20
224.3005795801696
 30
0.0
  0
VERTEX
  8
0
 10
100.5
 20
224.3005795801696
 30
0.0
  0
VERTEX
  8
0
 10
96.0
 20
216.50635094610965
 30
0.0
  0
VERTEX
  8
0
 10
100.5
 20
208.7121223120497
 30
0.0
  0
VERTEX
  8
0
 10
109.5
 20
208.7121223120497
 30
0.0
  0
SEQEND
  0
POLYLINE
  8
0
 66
1
 10
0.0
 20
0.0
 30
0.0
 70
9
  0
VERTEX
  8
0
 10
129.0
 20
69.28203230275508
 30
0.0
  0
VERTEX
  8
0
 10
124.5
 20
77.07626093681503
 30
0.0
  0
VERTEX
  8
0
 10
115.5
 20
77.07626093681503
 30
0.0
  0
VERTEX
  8
0
 10
111.0
 20
69.28203230275508
 30
0.0
  0
VERTEX
  8
0
 10
115.5
 20
61.487803668695136
 30
0.0
  0
VERTEX
  8
0
 10
124.5
 20
61.487803668695136
 30
0.0
  0
SEQEND
  0
POLYLINE
  8
0
 66
1
 10
0.0
 20
0.0
 30
0.0
 70
9
  0
VERTEX
  8
0
 10
129.0
 20
86.60254037844385
 30
0.0
  0
VERTEX
  8
0
 10
124.5
 20
94.3967690125038
 30
0.0
  0
VERTEX
  8
0
 10
115.5
 20
94.3967690125038
 30
0.0
  0
VERTEX
  8
0
 10
111.0
 20
86.60254037844385
 30
0.0
  0
VERTEX
  8
0
 10
115.5
 20
78.8083117443839
 30
0.0
  0
VERTEX
  8
0
 10
124.5
 20
78.8083117443839
 30
0.0
  0
SEQEND
  0
POLYLINE
  8
0
 66
1
 10
0.0
 20
0.0
 30
0.0
 70
9
  0
VERTEX
  8
0
 10
129.0
 20
103.92304845413264
 30
0.0
  0
VERTEX
  8
0
 10
124.5
 20
111.71727708819259
 30
0.0
  0
VERTEX
  8
0
 10
115.5
 20
111.71727708819259
 30
0.0
  0
VERTEX
  8
0
 10
111.0
 20
103.92304845413264
 30
0.0
  0
VERTEX
  8
0
 10
115.5
 20
96.12881982007269
 30
0.0
  0
VERTEX
  8
0
 10
124.5
 20
96.12881982007269
 30
0.0
  0
SEQEND
  0
POLYLINE
  8
0
 66
1
 10
0.0
 20
0.0
 30
0.0
 70
9
  0
VERTEX
  8
0
 10
129.0
 20
121.2435565298214
 30
0.0
  0
VERTEX
  8
0
 10
124.5
 20
129.03778516388135
 30
0.0
  0
VERTEX
  8
0
 10
115.5
 20
129.03778516388135
 30
0.0
  0
VERTEX
  8
0
 10
111.0
 20
121.2435565298214
 30
0.0
  0
VERTEX
  8
0
 10
115.5
 20
113.44932789576146
 30
0.0
  0
VERTEX
  8
0
 10
124.5
 20
113.44932789576146
 30
0.0
  0
SEQEND
  0
POLYLINE
  8
0
 66
1
 10
0.0
 20
0.0
 30
0.0
 70
9
  0
VERTEX
  8
0
 10
129.0
 20
138.56406460551017
 30
0.0
  0
VERTEX
  8
0
 10
124.5
 20
146.35829323957012
 30
0.0
  0
VERTEX
  8
0
 10
115.5
 20
146.35829323957012
 30
0.0
  0
VERTEX
  8
0
 10
111.0
 20
138.56406460551017
 30
0.0
  0
VERTEX
  8
0
 10
115.5
 20
130.76983597145022
 30
0.0
  0
VERTEX
  8
0
 10
124.5
 20
130.76983597145022
 30
0.0
  0
SEQEND
  0
POLYLINE
  8
0
 66
1
 10
0.0
 20
0.0
 30
0.0
 70
9
  0
VERTEX
  8
0
 10
129.0
 20
155.88457268119893
 30
0.0
  0
VERTEX
  8
0
 10
124.5
 20
163.67880131525888
 30
0.0
  0
VERTEX
  8
0
 10
115.5
 20
163.67880131525888
 30
0.0
  0
VERTEX
  8
0
 10
111.0
 20
155.88457268119893
 30
0.0
  0
VERTEX
  8
0
 10
115.5
 20
148.09034404713898
 30
0.0
  0
VERTEX
  8
0
 10
124.5
 20
148.09034404713898
 30
0.0
  0
SEQEND
  0
POLYLINE
  8
0
 66
1
 10
0.0
 20
0.0
 30
0.0
 70
9
  0
VERTEX
  8
0
 10
129.0
 20
173.2050807568877
 30
0.0
  0
VERTEX
  8
0
 10
124.5
 20
180.99930939094764
 30
0.0
  0
VERTEX
  8
0
 10
115.5
 20
180.99930939094764
 30
0.0
  0
VERTEX
  8
0
 10
111.0
 20
173.2050807568877
 30
0.0
  0
VERTEX
  8
0
 10
115.5
 20
165.41085212282775
 30
0.0
  0
VERTEX
  8
0
 10
124.5
 20
165.41085212282775
 30
0.0
  0
SEQEND
  0
POLYLINE
  8
0
 66
1
 10
0.0
 20
0.0
 30
0.0
 70
9
  0
VERTEX
  8
0
 10
129.0
 20
190.5255888325765
 30
0.0
  0
VERTEX
  8
0
 10
124.5
 20
198.31981746663644
 30
0.0
  0
VERTEX
  8
0
 10
115.5
 20
198.31981746663644
 30
0.0
  0
VERTEX
  8
0
 10
111.0
 20
190.5255888325765
 30
0.0
  0
VERTEX
  8
0
 10
115.5
 20
182.73136019851654
 30
0.0
  0
VERTEX
  8
0
 10
124.5
 20
182.73136019851654
 30
0.0
  0
SEQEND
  0
POLYLINE
  8
0
 66
1
 10
0.0
 20
0.0
 30
0.0
 70
9
  0
VERTEX
  8
0
 10
129.0
 20
207.84609690826528
 30
0.0
  0
VERTEX
  8
0
 10
124.5
 20
215.64032554232523
 30
0.0
  0
VERTEX
  8
0
 10
115.5
 20
215.64032554232523
 30
0.0
  0
VERTEX
  8
0
 10
111.0
 20
207.84609690826528
 30
0.0
  0
VERTEX
  8
0
 10
115.5
 20
200.05186827420533
 30
0.0
  0
VERTEX
  8
0
 10
124.5
 20
200.05186827420533
 30
0.0
  0
SEQEND
  0
POLYLINE
  8
0
 66
1
 10
0.0
 20
0.0
 30
0.0
 70
9
  0
VERTEX
  8
0
 10
129.0
 20
225.16660498395402
 30
0.0
  0
VERTEX
  8
0
 10
124.5
 20
232.96083361801396
 30
0.0
  0
VERTEX
  8
0
 10
115.5
 20
232.96083361801396
 30
0.0
  0
VERTEX
  8
0
 10
111.0
 20
225.16660498395402
 30
0.0
  0
VERTEX
  8
0
 10
115.5
 20
217.37237634989407
 30
0.0
  0
VERTEX
  8
0
 10
124.5
 20
217.37237634989407
 30
0.0
  0
SEQEND
  0
POLYLINE
  8
0
 66
1
 10
0.0
 20
0.0
 30
0.0
 70
9
  0
VERTEX
  8
0
 10
144.0
 20
77.94228634059947
 30
0.0
  0
VERTEX
  8
0
 10
139.5
 20
85.73651497465941
 30
0.0
  0
VERTEX
  8
0
 10
130.5
 20
85.73651497465941
 30
0.0
  0
VERTEX
  8
0
 10
126.0
 20
77.94228634059947
 30
0.0
  0
VERTEX
  8
0
 10
130.5
 20
70.14805770653952
 30
0.0
  0
VERTEX
  8
0
 10
139.5
 20
70.14805770653952
 30
0.0
  0
SEQEND
  0
POLYLINE
  8
0
 66
1
 10
0.0
 20
0.0
 30
0.0
 70
9
  0
VERTEX
  8
0
 10
144.0
 20
95.26279441628824
 30
0.0
  0
VERTEX
  8
0
 10
139.5
 20
103.05702305034819
 30
0.0
  0
VERTEX
  8
0
 10
130.5
 20
103.05702305034819
 30
0.0
  0
VERTEX
  8
0
 10
126.0
 20
95.26279441628824
 30
0.0
  0
VERTEX
  8
0
 10
130.5
 20
87.4685657822283
 30
0.0
  0
VERTEX
  8
0
 10
139.5
 20
87.4685657822283
 30
0.0
  0
SEQEND
  0
POLYLINE
  8
0
 66
1
 10
0.0
 20
0.0
 30
0.0
 70
9
  0
VERTEX
  8
0
 10
144.0
 20
112.58330249197701
 30
0.0
  0
VERTEX
  8
0
 10
139.5
 20
120.37753112603696
 30
0.0
  0
VERTEX
  8
0
 10
130.5
 20
120.37753112603696
 30
0.0
  0
VERTEX
  8
0
 10
126.0
 20
112.58330249197701
 30
0.0
  0
VERTEX
  8
0
 10
130.5
 20
104.78907385791706
 30
0.0
  0
VERTEX
  8
0
 10
139.5
 20
104.78907385791706
 30
0.0
  0
SEQEND
  0
POLYLINE
  8
0
 66
1
 10
0.0
 20
0.0
 30
0.0
 70
9
  0
VERTEX
  8
0
 10
144.0
 20
129.9038105676658
 30
0.0
  0
VERTEX
  8
0
 10
139.5
 20
137.69803920172575
 30
0.0
  0
VERTEX
  8
0
 10
130.5
 20
137.69803920172575
 30
0.0
  0
VERTEX
  8
0
 10
126.0
 20
129.9038105676658
 30
0.0
  0
VERTEX
  8
0
 10
130.5
 20
122.10958193360585
 30
0.0
  0
VERTEX
  8
0
 10
139.5
 20
122.10958193360585
 30
0.0
  0
SEQEND
  0
POLYLINE
  8
0
 66
1
 10
0.0
 20
0.0
 30
0.0
 70
9
  0
VERTEX
  8
0
 10
144.0
 20
147.22431864335454
 30
0.0
  0
VERTEX
  8
0
 10
139.5
 20
155.01854727741448
 30
0.0
  0
VERTEX
  8
0
 10
130.5
 20
155.01854727741448
 30
0.0
  0
VERTEX
  8
0
 10
126.0
 20
147.22431864335454
 30
0.0
  0
VERTEX
  8
0
 10
130.5
 20
139.4300900092946
 30
0.0
  0
VERTEX
  8
0
 10
139.5
 20
139.4300900092946
 30
0.0
  0
SEQEND
  0
POLYLINE
  8
0
 66
1
 10
0.0
 20
0.0
 30
0.0
 70
9
  0
VERTEX
  8
0
 10
144.0
 20
164.54482671904333
 30
0.0
  0
VERTEX
  8
0
 10
139.5
 20
172.33905535310328
 30
0.0
  0
VERTEX
  8
0
 10
130.5
 20
172.33905535310328
 30
0.0
  0
VERTEX
  8
0
 10
126.0
 20
164.54482671904333
 30
0.0
  0
VERTEX
  8
0
 10
130.5
 20
156.75059808498338
 30
0.0
  0
VERTEX
  8
0
 10
139.5
 20
156.75059808498338
 30
0.0
  0
SEQEND
  0
POLYLINE
  8
0
 66
1
 10
0.0
 20
0.0
 30
0.0
 70
9
  0
VERTEX
  8
0
 10
144.0
 20
181.86533479473212
 30
0.0
  0
VERTEX
  8
0
 10
139.5
 20
189.65956342879207
 30
0.0
  0
VERTEX
  8
0
 10
130.5
 20
189.65956342879207
 30
0.0
  0
VERTEX
  8
0
 10
126.0
 20
181.86533479473212
 30
0.0
  0
VERTEX
  8
0
 10
130.5
 20
174.07110616067217
 30
0.0
  0
VERTEX
  8
0
 10
139.5
 20
174.07110616067217
 30
0.0
  0
SEQEND
  0
POLYLINE
  8
0
 66
1
 10
0.0
 20
0.0
 30
0.0
 70
9
  0
VERTEX
  8
0
 10
144.0
 20
199.18584287042086
 30
0.0
  0
VERTEX
  8
0
 10
139.5
 20
206.9800715044808
 30
0.0
  0
VERTEX
  8
0
 10
130.5
 20
206.9800715044808
 30
0.0
  0
VERTEX
  8
0
 10
126.0
 20
199.18584287042086
 30
0.0
  0
VERTEX
  8
0
 10
130.5
 20
191.3916142363609
 30
0.0
  0
VERTEX
  8
0
 10
139.5
 20
191.3916142363609
 30
0.0
  0
SEQEND
  0
POLYLINE
  8
0
 66
1
 10
0.0
 20
0.0
 30
0.0
 70
9
  0
VERTEX
  8
0
 10
144.0
 20
216.50635094610965
 30
0.0
  0
VERTEX
  8
0
 10
139.5
 20
224.3005795801696
 30
0.0
  0
VERTEX
  8
0
 10
130.5
 20
224.3005795801696
 30
0.0
  0
VERTEX
  8
0
 10
126.0
 20
216.50635094610965
 30
0.0
  0
VERTEX
  8
0
 10
130.5
 20
208.7121223120497
 30
0.0
  0
VERTEX
  8
0
 10
139.5
 20
208.7121223120497
 30
0.0
  0
SEQEND
  0
POLYLINE
  8
0
 66
1
 10
0.0
 20
0.0
 30
0.0
 70
9
  0
VERTEX
  8
0
 10
144.0
 20
233.8268590217984
 30
0.0
  0
VERTEX
  8
0
 10
139.5
 20
241.62108765585836
 30
0.0
  0
VERTEX
  8
0
 10
130.5
 20
241.62108765585836
 30
0.0
  0
VERTEX
  8
0
 10
126.0
 20
233.8268590217984
 30
0.0
  0
VERTEX
  8
0
 10
130.5
 20
226.03263038773846
 30
0.0
  0
VERTEX
  8
0
 10
139.5
 20
226.03263038773846
 30
0.0
  0
SEQEND
  0
ENDSEC
  0
EOF
